# xmcd
#
# Track frame offsets:
#	182
#	16765
#	32490
#	50865
#	64930
#	81490
#	99850
#	136125
#	155250
#	176555
#	193700
#	216700
#	244555
#
# Disc length: 3528 seconds
#
# Revision: 2
# Processed by: cddbd v1.4b41PL2 Copyright (c) Steve Scherf et al.
# Submitted via: EZCDDA 4.3.2
#
DISCID=af0dc60d
DTITLE=The Blues Naturally
DYEAR=1900
DGENRE=
TTITLE0=Alone In the Night
TTITLE1=Like I Need You
TTITLE2=The Blues
TTITLE3=Pussycat Blues
TTITLE4=Bobo's Blues
TTITLE5=Midnight Hours
TTITLE6=After Hours
TTITLE7=Northern Reflections
TTITLE8=Lonely Nights
TTITLE9=Marsha's Blues
TTITLE10=Bella's Blues
TTITLE11=Thunder Blues
TTITLE12=Common Loon Boogie
EXTD=Does nature ever get the blues?  The authentic natural \nsounds on The Bl
EXTD=ues Naturally blend perfectly with a\nvariety of spirited blues compositi
EXTD=ons.  You'll appreciate\nteh expressive abilities of both people and natu
EXTD=re as\nyou listen to these selections infused with the spirit of\nthe blu
EXTD=es.
EXTT0=
EXTT1=
EXTT2=
EXTT3=
EXTT4=
EXTT5=
EXTT6=
EXTT7=
EXTT8=
EXTT9=
EXTT10=
EXTT11=
EXTT12=
PLAYORDER=
